<svg width="512" height="512" viewBox="0 0 512 512" fill="none" xmlns="http://www.w3.org/2000/svg">
  <rect width="512" height="512" rx="120" fill="url(#paint0_linear)"/>
  <rect x="20" y="20" width="472" height="472" rx="100" stroke="white" stroke-opacity="0.1" stroke-width="2"/>
  <path d="M160 120C148.954 120 140 128.954 140 140V372C140 383.046 148.954 392 160 392H352C363.046 392 372 383.046 372 372V140C372 128.954 363.046 120 352 120H160Z" fill="white"/>
  <rect x="180" y="180" width="152" height="12" rx="6" fill="#6366F1" fill-opacity="0.2"/>
  <rect x="180" y="220" width="152" height="12" rx="6" fill="#6366F1" fill-opacity="0.2"/>
  <rect x="180" y="260" width="100" height="12" rx="6" fill="#6366F1" fill-opacity="0.2"/>
  <rect x="125" y="160" width="30" height="10" rx="5" fill="#4F46E5"/>
  <rect x="125" y="210" width="30" height="10" rx="5" fill="#4F46E5"/>
  <rect x="125" y="260" width="30" height="10" rx="5" fill="#4F46E5"/>
  <rect x="125" y="310" width="30" height="10" rx="5" fill="#4F46E5"/>
  <defs>
    <linearGradient id="paint0_linear" x1="0" y1="0" x2="512" y2="512" gradientUnits="userSpaceOnUse">
      <stop stop-color="#6366F1"/>
      <stop offset="1" stop-color="#4F46E5"/>
    </linearGradient>
  </defs>
</svg>
